<svg width="1440" height="262" viewBox="0 0 1440 262" fill="none" xmlns="http://www.w3.org/2000/svg">
<path d="M11 256C110.167 174 365.2 25 592 85C875.5 160 800 290 1216 136.5C1273 113 1368.7 54.7 1389.5 39.5" stroke="#D7D7D7" stroke-width="3" stroke-linecap="round" stroke-dasharray="10 10"/>
<path d="M1438.59 9.34176C1438.72 9.55823 1438.79 9.80997 1438.79 10.0657C1438.78 10.3214 1438.7 10.5699 1438.56 10.7803L1415.35 44.4672C1415.15 44.7639 1414.86 44.9984 1414.54 45.1449C1414.21 45.2914 1413.84 45.3443 1413.49 45.2977C1413.13 45.2512 1412.79 45.1069 1412.51 44.8809C1412.23 44.6548 1412.02 44.3558 1411.9 44.0166L1406.69 29.4648L1395.8 18.492C1395.55 18.2363 1395.37 17.9152 1395.28 17.5642C1395.2 17.2133 1395.22 16.846 1395.33 16.5031C1395.44 16.1602 1395.64 15.8548 1395.92 15.6208C1396.19 15.3868 1396.53 15.2331 1396.88 15.1768L1437.28 8.75282C1437.53 8.71206 1437.79 8.7464 1438.02 8.85155C1438.25 8.95671 1438.45 9.12806 1438.59 9.34431L1438.59 9.34176ZM1409.39 29.2968L1413.92 41.9351L1432.8 14.5354L1409.39 29.2968ZM1431.4 12.3274L1398.55 17.5567L1408.01 27.0868L1431.4 12.3274Z" fill="black"/>
<circle cx="1403" cy="32" r="3" fill="black"/>
<circle cx="1397" cy="36" r="3" fill="black"/>
<circle cx="1390" cy="40" r="3" fill="black"/>
<circle cx="10" cy="252" r="9" fill="white" stroke="black" stroke-width="2"/>
</svg>
